<?xml version="1.0" encoding="UTF-8" standalone="no"?>
<!DOCTYPE svg PUBLIC "-//W3C//DTD SVG 1.1//EN" "http://www.w3.org/Graphics/SVG/1.1/DTD/svg11.dtd">
<svg width="100%" height="100%" viewBox="0 0 8 16" version="1.1" xmlns="http://www.w3.org/2000/svg" xmlns:xlink="http://www.w3.org/1999/xlink" xml:space="preserve" xmlns:serif="http://www.serif.com/" style="fill-rule:evenodd;clip-rule:evenodd;stroke-linejoin:round;stroke-miterlimit:2;">
    <g transform="matrix(1,0,0,1,-1639.15,-50.2827)">
        <g transform="matrix(0.105452,0,0,0.105452,1627.64,42.6325)">
            <path d="M163.394,100.277L182.166,100.277L182.166,72.547L160.099,72.547L160.099,72.647C133.361,73.594 127.881,88.624 127.398,104.41L127.343,104.41L127.343,118.257L109.136,118.257L109.136,145.413L127.343,145.413L127.343,218.206L154.782,218.206L154.782,145.413L177.259,145.413L181.601,118.257L154.791,118.257L154.791,109.891C154.791,104.556 158.341,100.277 163.394,100.277Z" style="fill:white;fill-rule:nonzero;"/>
        </g>
    </g>
</svg>
