<?xml version="1.0" encoding="UTF-8" standalone="no"?>
<!DOCTYPE svg PUBLIC "-//W3C//DTD SVG 1.1//EN" "http://www.w3.org/Graphics/SVG/1.1/DTD/svg11.dtd">
<svg width="100%" height="100%" viewBox="0 0 24 24" version="1.1" xmlns="http://www.w3.org/2000/svg" xmlns:xlink="http://www.w3.org/1999/xlink" xml:space="preserve" xmlns:serif="http://www.serif.com/" style="fill-rule:evenodd;clip-rule:evenodd;stroke-linejoin:round;stroke-miterlimit:2;">
    <g transform="matrix(1,0,0,1,-1538,-46)">
        <g transform="matrix(0.0375587,0,0,0.0375587,1535.58,43.5775)">
            <path d="M523.5,448.5L631.5,448.5C637.5,420.5 640.5,399 640.5,384C640.5,369 637.5,347.5 631.5,319.5L523.5,319.5C526.5,340.5 528,362 528,384C528,406 526.5,427.5 523.5,448.5ZM466.5,625.5C491.5,617.5 517.5,602.25 544.5,579.75C571.5,557.25 592,534.5 606,511.5L511.5,511.5C501.5,551.5 486.5,589.5 466.5,625.5ZM459,448.5C462,427.5 463.5,406 463.5,384C463.5,362 462,340.5 459,319.5L309,319.5C306,340.5 304.5,362 304.5,384C304.5,406 306,427.5 309,448.5L459,448.5ZM384,639C412,598 432.5,555.5 445.5,511.5L322.5,511.5C335.5,555.5 356,598 384,639ZM256.5,256.5C268.5,213.5 283.5,175.5 301.5,142.5C276.5,150.5 250.25,165.75 222.75,188.25C195.25,210.75 175,233.5 162,256.5L256.5,256.5ZM162,511.5C175,534.5 195.25,557.25 222.75,579.75C250.25,602.25 276.5,617.5 301.5,625.5C281.5,589.5 266.5,551.5 256.5,511.5L162,511.5ZM136.5,448.5L244.5,448.5C241.5,427.5 240,406 240,384C240,362 241.5,340.5 244.5,319.5L136.5,319.5C130.5,347.5 127.5,369 127.5,384C127.5,399 130.5,420.5 136.5,448.5ZM384,129C356,170 335.5,212.5 322.5,256.5L445.5,256.5C432.5,212.5 412,170 384,129ZM606,256.5C592,233.5 571.5,210.75 544.5,188.25C517.5,165.75 491.5,150.5 466.5,142.5C484.5,175.5 499.5,213.5 511.5,256.5L606,256.5ZM384,64.5C472,64.5 547.25,95.75 609.75,158.25C672.25,220.75 703.5,296 703.5,384C703.5,472 672.25,547.25 609.75,609.75C547.25,672.25 472,703.5 384,703.5C296,703.5 220.75,672.25 158.25,609.75C95.75,547.25 64.5,472 64.5,384C64.5,296 95.75,220.75 158.25,158.25C220.75,95.75 296,64.5 384,64.5Z" style="fill:rgb(237,28,36);fill-rule:nonzero;"/>
        </g>
    </g>
</svg>
