<?xml version="1.0" encoding="UTF-8" standalone="no"?>
<!DOCTYPE svg PUBLIC "-//W3C//DTD SVG 1.1//EN" "http://www.w3.org/Graphics/SVG/1.1/DTD/svg11.dtd">
<svg width="100%" height="100%" viewBox="0 0 17 12" version="1.1" xmlns="http://www.w3.org/2000/svg" xmlns:xlink="http://www.w3.org/1999/xlink" xml:space="preserve" xmlns:serif="http://www.serif.com/" style="fill-rule:evenodd;clip-rule:evenodd;stroke-linejoin:round;stroke-miterlimit:2;">
    <g transform="matrix(1,0,0,1,-1681.81,-52.24)">
        <g transform="matrix(0.585158,0,0,0.585158,1681.81,49.8081)">
            <path d="M11.109,17.625L18.671,13.719L11.109,9.766L11.109,17.625ZM14,4.156C19.891,4.156 23.797,4.437 23.797,4.437C24.344,4.5 25.547,4.5 26.609,5.625C26.609,5.625 27.468,6.469 27.718,8.406C28.015,10.672 27.999,12.937 27.999,12.937L27.999,15.062C27.999,15.062 28.015,17.328 27.718,19.593C27.468,21.515 26.609,22.374 26.609,22.374C25.547,23.483 24.343,23.483 23.797,23.546C23.797,23.546 19.891,23.843 14,23.843C6.719,23.78 4.484,23.562 4.484,23.562C3.859,23.453 2.453,23.484 1.39,22.374C1.39,22.374 0.531,21.515 0.281,19.593C-0.016,17.327 0,15.062 0,15.062L0,12.937C0,12.937 -0.016,10.671 0.281,8.406C0.531,6.469 1.39,5.625 1.39,5.625C2.452,4.5 3.656,4.5 4.202,4.437C4.202,4.437 8.108,4.156 13.999,4.156L14,4.156Z" style="fill:white;fill-rule:nonzero;"/>
        </g>
    </g>
</svg>
