<?xml version="1.0" encoding="UTF-8" standalone="no"?>
<!DOCTYPE svg PUBLIC "-//W3C//DTD SVG 1.1//EN" "http://www.w3.org/Graphics/SVG/1.1/DTD/svg11.dtd">
<svg width="100%" height="100%" viewBox="0 0 60 60" version="1.1" xmlns="http://www.w3.org/2000/svg" xmlns:xlink="http://www.w3.org/1999/xlink" xml:space="preserve" xmlns:serif="http://www.serif.com/" style="fill-rule:evenodd;clip-rule:evenodd;stroke-linejoin:round;stroke-miterlimit:2;">
    <g transform="matrix(1,0,0,1,0,0.1)">
        <g transform="matrix(1,0,0,1,-1315,-735)">
            <g transform="matrix(-1,-1.22465e-16,1.22465e-16,-1,2690,1529.9)">
                <path d="M1345,735C1361.56,735 1375,748.443 1375,765C1375,781.557 1361.56,795 1345,795C1328.44,795 1315,781.557 1315,765C1315,748.443 1328.44,735 1345,735ZM1345,736C1361.01,736 1374,748.994 1374,765C1374,781.006 1361.01,794 1345,794C1328.99,794 1316,781.006 1316,765C1316,748.994 1328.99,736 1345,736ZM1345,740C1358.8,740 1370,751.202 1370,765C1370,778.798 1358.8,790 1345,790C1331.2,790 1320,778.798 1320,765C1320,751.202 1331.2,740 1345,740ZM1346.83,766L1342.85,769.986C1342.38,770.447 1342.38,771.194 1342.85,771.655C1343.31,772.115 1344.05,772.115 1344.51,771.655L1349.33,766.834C1349.56,766.605 1349.68,766.304 1349.68,766.003L1349.68,765.986C1349.68,765.77 1349.62,765.559 1349.5,765.375C1349.45,765.299 1349.4,765.23 1349.33,765.166L1344.51,760.345C1344.05,759.885 1343.31,759.885 1342.85,760.345C1342.38,760.806 1342.38,761.553 1342.85,762.014L1346.83,766Z" style="fill:white;"/>
            </g>
        </g>
    </g>
</svg>
