<?xml version="1.0" encoding="UTF-8" standalone="no"?>
<!DOCTYPE svg PUBLIC "-//W3C//DTD SVG 1.1//EN" "http://www.w3.org/Graphics/SVG/1.1/DTD/svg11.dtd">
<svg width="100%" height="100%" viewBox="0 0 87 94" version="1.1" xmlns="http://www.w3.org/2000/svg" xmlns:xlink="http://www.w3.org/1999/xlink" xml:space="preserve" xmlns:serif="http://www.serif.com/" style="fill-rule:evenodd;clip-rule:evenodd;stroke-linecap:round;stroke-linejoin:round;stroke-miterlimit:2;">
    <g transform="matrix(1,0,0,1,-744,-3197)">
        <g transform="matrix(1,0,0,1,0,520)">
            <g transform="matrix(0.827423,0,0,0.827423,151.608,474.834)">
                <g transform="matrix(0.860215,-7.26582e-32,0,0.860215,33.7634,2383.7)">
                    <path d="M914,394.5C914,368.836 893.164,348 867.5,348C841.836,348 821,368.836 821,394.5C821,420.164 841.836,441 867.5,441C893.164,441 914,420.164 914,394.5Z" style="fill:rgb(237,113,36);"/>
                </g>
                <g id="iStock-1132049228" transform="matrix(0.522108,0,0,0.522108,226.714,1980.8)">
                    <path d="M1060.61,1489.39L1006.05,1489.39L1006.05,1467.51L1060.61,1467.51L1060.61,1489.39ZM1060.61,1489.39C1060.61,1504.45 1048.4,1516.67 1033.33,1516.67C1018.27,1516.67 1006.06,1504.45 1006.06,1489.39L1060.61,1489.39ZM1006.05,1467.88C1006.05,1442.63 965.333,1427.56 965.333,1386.3C965.333,1344.45 997.179,1316.67 1033.33,1316.67C1069.49,1316.67 1101.33,1344.45 1101.33,1386.3C1101.33,1427.56 1060.61,1442.63 1060.61,1467.88L1006.05,1467.88ZM1030.33,1410.36L1019.73,1415.92C1015,1418.42 1009.46,1414.4 1010.36,1409.12L1012.39,1397.32C1012.75,1395.23 1012.05,1393.09 1010.52,1391.6L1001.96,1383.25C998.125,1379.52 1000.24,1373 1005.54,1372.23L1017.38,1370.51C1019.49,1370.21 1021.3,1368.89 1022.25,1366.98L1027.54,1356.25C1029.91,1351.45 1036.75,1351.45 1039.12,1356.25L1044.42,1366.98C1045.36,1368.89 1047.18,1370.21 1049.28,1370.51L1061.13,1372.23C1066.42,1373 1068.54,1379.52 1064.71,1383.25L1056.14,1391.6C1054.61,1393.09 1053.92,1395.23 1054.28,1397.32L1056.3,1409.12C1057.21,1414.4 1051.67,1418.42 1046.93,1415.92L1036.34,1410.36C1034.46,1409.37 1032.21,1409.37 1030.33,1410.36ZM1101.32,1326.95C1107.35,1329.48 1112.19,1334.31 1114.72,1340.35C1115.46,1342.1 1117.87,1342.1 1118.61,1340.35C1121.15,1334.31 1125.98,1329.48 1132.01,1326.95C1133.77,1326.2 1133.77,1323.8 1132.01,1323.05C1125.98,1320.52 1121.15,1315.69 1118.61,1309.65C1117.87,1307.9 1115.46,1307.9 1114.72,1309.65C1112.19,1315.69 1107.35,1320.52 1101.32,1323.05C1099.56,1323.8 1099.56,1326.2 1101.32,1326.95ZM950.208,1329.17L949.792,1329.17L949.792,1325L950.208,1325L950.208,1329.17ZM950.208,1341.67L949.792,1341.67L949.792,1337.5L950.208,1337.5L950.208,1341.67ZM945.833,1333.54L941.667,1333.54L941.667,1333.12L945.833,1333.12L945.833,1333.54ZM958.333,1333.54L954.167,1333.54L954.167,1333.12L958.333,1333.12L958.333,1333.54ZM954.375,1449.07L953.958,1449.07L953.958,1442.81L954.375,1442.81L954.375,1449.07ZM954.375,1467.81L953.958,1467.81L953.958,1461.56L954.375,1461.56L954.375,1467.81ZM947.917,1455.52L941.667,1455.52L941.667,1455.11L947.917,1455.11L947.917,1455.52ZM966.667,1455.52L960.417,1455.52L960.417,1455.11L966.667,1455.11L966.667,1455.52Z" style="fill:none;stroke:rgb(37,37,37);stroke-width:9.26px;"/>
                </g>
            </g>
        </g>
    </g>
</svg>
