<?xml version="1.0" encoding="UTF-8" standalone="no"?>
<!DOCTYPE svg PUBLIC "-//W3C//DTD SVG 1.1//EN" "http://www.w3.org/Graphics/SVG/1.1/DTD/svg11.dtd">
<svg width="100%" height="100%" viewBox="0 0 81 94" version="1.1" xmlns="http://www.w3.org/2000/svg" xmlns:xlink="http://www.w3.org/1999/xlink" xml:space="preserve" xmlns:serif="http://www.serif.com/" style="fill-rule:evenodd;clip-rule:evenodd;stroke-linecap:round;stroke-linejoin:round;stroke-miterlimit:2;">
    <g transform="matrix(1,0,0,1,-396,-3200)">
        <g transform="matrix(1,0,0,1,0,520)">
            <g transform="matrix(0.913866,0,0,0.913866,83.6187,235.023)">
                <g transform="matrix(0.860215,-7.26582e-32,0,0.860215,-356.237,2393.7)">
                    <path d="M914,394.5C914,368.836 893.164,348 867.5,348C841.836,348 821,368.836 821,394.5C821,420.164 841.836,441 867.5,441C893.164,441 914,420.164 914,394.5Z" style="fill:rgb(237,113,36);"/>
                </g>
                <g id="iStock-1132049228" transform="matrix(0.472721,0,0,0.472721,70.2285,2590.94)">
                    <path d="M667.025,191.737L678.058,184.663C682.213,182 687.763,183.487 690.029,187.871L696.046,199.512C697.554,202.425 700.613,204.192 703.883,204.037L716.975,203.429C721.908,203.2 725.967,207.263 725.742,212.192L725.129,225.283C724.979,228.554 726.746,231.617 729.654,233.121L741.3,239.142C745.683,241.408 747.171,246.954 744.508,251.112L737.433,262.146C735.667,264.904 735.667,268.437 737.433,271.192L744.508,282.225C747.171,286.383 745.683,291.929 741.3,294.196L729.654,300.217C726.746,301.721 724.979,304.779 725.129,308.054L725.742,321.146C725.967,326.079 721.908,330.138 716.975,329.908L703.883,329.3C700.613,329.15 697.554,330.913 696.046,333.825L690.029,345.467C687.763,349.854 682.213,351.338 678.058,348.675L667.025,341.6C664.267,339.833 660.733,339.833 657.975,341.6L646.942,348.675C642.787,351.338 637.237,349.854 634.971,345.467L628.954,333.825C627.446,330.913 624.387,329.15 621.117,329.3L608.025,329.908C603.092,330.138 599.033,326.079 599.258,321.146L599.871,308.054C600.021,304.779 598.254,301.721 595.346,300.217L583.7,294.196C579.317,291.929 577.829,286.383 580.492,282.225L587.567,271.192C589.333,268.437 589.333,264.904 587.567,262.146L580.492,251.112C577.829,246.954 579.317,241.408 583.7,239.142L595.346,233.121C598.254,231.617 600.021,228.554 599.871,225.283L599.258,212.192C599.033,207.263 603.092,203.2 608.025,203.429L621.117,204.037C624.387,204.192 627.446,202.425 628.954,199.512L634.971,187.871C637.237,183.487 642.787,182 646.942,184.663L657.975,191.737C660.733,193.504 664.267,193.504 667.025,191.737ZM646.942,348.675C642.787,351.338 637.237,349.854 634.971,345.467L628.95,333.825C627.446,330.913 624.387,329.15 621.117,329.3L608.025,329.908C605.333,330.033 602.938,328.858 601.321,326.992L582.021,360.417C580.471,363.1 582.287,366.475 585.379,366.658L609.117,368.083C610.429,368.163 611.625,368.854 612.346,369.95L625.45,389.796C627.158,392.383 630.992,392.267 632.538,389.583L660.871,340.508C659.863,340.704 658.875,341.025 657.975,341.6L646.942,348.675ZM716.975,329.908L703.883,329.3C700.613,329.15 697.554,330.913 696.05,333.825L690.029,345.467C687.763,349.854 682.213,351.338 678.058,348.675L667.025,341.6C666.125,341.025 665.137,340.704 664.129,340.508L692.462,389.583C694.013,392.267 697.842,392.383 699.55,389.796L712.654,369.95C713.375,368.854 714.571,368.163 715.883,368.083L739.621,366.658C742.713,366.475 744.529,363.1 742.979,360.417L723.679,326.992C722.062,328.858 719.667,330.033 716.975,329.908ZM716.667,266.667C716.667,296.583 692.417,320.833 662.5,320.833C632.583,320.833 608.333,296.583 608.333,266.667C608.333,236.754 632.583,212.5 662.5,212.5C692.417,212.5 716.667,236.754 716.667,266.667ZM660.246,285.938L652.3,290.117C648.746,291.983 644.592,288.967 645.271,285.008L646.788,276.162C647.058,274.592 646.538,272.987 645.396,271.875L638.971,265.608C636.092,262.804 637.679,257.921 641.654,257.346L650.533,256.054C652.113,255.825 653.475,254.833 654.183,253.404L658.158,245.354C659.933,241.754 665.067,241.754 666.842,245.354L670.817,253.404C671.525,254.833 672.887,255.825 674.467,256.054L683.346,257.346C687.321,257.921 688.908,262.804 686.029,265.608L679.604,271.875C678.462,272.987 677.942,274.592 678.212,276.162L679.729,285.008C680.408,288.967 676.254,291.983 672.7,290.117L664.754,285.938C663.342,285.196 661.658,285.196 660.246,285.938Z" style="fill:none;stroke:rgb(37,37,37);stroke-width:9.26px;"/>
                </g>
            </g>
        </g>
    </g>
</svg>
