<?xml version="1.0" encoding="UTF-8" standalone="no"?>
<!DOCTYPE svg PUBLIC "-//W3C//DTD SVG 1.1//EN" "http://www.w3.org/Graphics/SVG/1.1/DTD/svg11.dtd">
<svg width="100%" height="100%" viewBox="0 0 94 89" version="1.1" xmlns="http://www.w3.org/2000/svg" xmlns:xlink="http://www.w3.org/1999/xlink" xml:space="preserve" xmlns:serif="http://www.serif.com/" style="fill-rule:evenodd;clip-rule:evenodd;stroke-linecap:round;stroke-linejoin:round;stroke-miterlimit:2;">
    <g transform="matrix(1,0,0,1,-1439,-3194.67)">
        <g transform="matrix(1,0,0,1,0,520)">
            <g transform="matrix(0.916667,0,0,0.916667,76.5417,230.839)">
                <g transform="matrix(0.860215,-7.26582e-32,0,0.860215,791.819,2383.7)">
                    <path d="M914,394.5C914,368.836 893.164,348 867.5,348C841.836,348 821,368.836 821,394.5C821,420.164 841.836,441 867.5,441C893.164,441 914,420.164 914,394.5Z" style="fill:rgb(237,113,36);"/>
                </g>
                <g id="iStock-1132050849" transform="matrix(0.436364,0,0,0.436364,1412.14,2420.9)">
                    <path d="M192.725,758.333L192.725,710.033L192.725,758.333L245.904,758.333L245.904,710.033L245.904,710.35L284.267,658.375C288.575,654.067 288.575,647.017 284.267,642.708C279.958,638.4 272.908,638.4 268.596,642.708L237.042,683.446L197.154,683.446C184.971,683.446 175,693.417 175,705.604L175,736.625C175,747.296 182.642,756.267 192.725,758.333ZM219.312,679.012C231.55,679.012 241.475,669.096 241.475,656.858C241.475,644.617 231.55,634.696 219.312,634.696C207.075,634.696 197.154,644.617 197.154,656.858C197.154,669.096 207.075,679.012 219.312,679.012ZM382.271,758.333C392.354,756.267 400,747.296 400,736.625L400,705.604C400,693.417 390.025,683.446 377.842,683.446L337.954,683.446L306.4,642.708C302.092,638.4 295.037,638.4 290.729,642.708C286.421,647.017 286.421,654.067 290.729,658.375L329.092,710.35L329.092,710.033L329.092,758.333L382.271,758.333L382.271,710.033L382.271,758.333ZM355.683,679.012C343.446,679.012 333.521,669.096 333.521,656.858C333.521,644.617 343.446,634.696 355.683,634.696C367.921,634.696 377.842,644.617 377.842,656.858C377.842,669.096 367.921,679.012 355.683,679.012ZM287.704,588.875L287.292,588.875L287.292,566.667L287.704,566.667L287.704,588.875ZM267.208,600.8L246.446,586.913L246.679,586.567L267.437,600.454L267.208,600.8ZM307.788,600.8L307.558,600.454L328.317,586.567L328.55,586.913L307.788,600.8ZM292.179,612.275C292.179,614.858 290.083,616.954 287.5,616.954C284.912,616.954 282.821,614.858 282.821,612.275C282.821,609.692 284.912,607.596 287.5,607.596C290.083,607.596 292.179,609.692 292.179,612.275Z" style="fill:none;stroke:rgb(37,37,37);stroke-width:10px;"/>
                </g>
            </g>
        </g>
    </g>
</svg>
