<?xml version="1.0" encoding="UTF-8" standalone="no"?>
<!DOCTYPE svg PUBLIC "-//W3C//DTD SVG 1.1//EN" "http://www.w3.org/Graphics/SVG/1.1/DTD/svg11.dtd">
<svg width="100%" height="100%" viewBox="0 0 94 94" version="1.1" xmlns="http://www.w3.org/2000/svg" xmlns:xlink="http://www.w3.org/1999/xlink" xml:space="preserve" xmlns:serif="http://www.serif.com/" style="fill-rule:evenodd;clip-rule:evenodd;stroke-linecap:round;stroke-linejoin:round;stroke-miterlimit:2;">
    <g transform="matrix(1,0,0,1,-1087.5,-3195.47)">
        <g transform="matrix(1,0,0,1,0,520)">
            <g transform="matrix(0.863095,0,0,0.863095,135.536,375.412)">
                <g transform="matrix(0.860215,-7.26582e-32,0,0.860215,406.819,2383.7)">
                    <path d="M914,394.5C914,368.836 893.164,348 867.5,348C841.836,348 821,368.836 821,394.5C821,420.164 841.836,441 867.5,441C893.164,441 914,420.164 914,394.5Z" style="fill:rgb(237,113,36);"/>
                </g>
                <g id="iStock-1132049228" transform="matrix(0.480811,0,0,0.480811,838.883,2040.21)">
                    <path d="M654.271,1487.6C617.396,1487.6 587.396,1457.6 587.396,1420.73C587.396,1383.85 617.396,1353.86 654.271,1353.86C663.325,1353.86 672.113,1355.64 680.383,1359.15C680.492,1359.2 680.542,1359.32 680.496,1359.42C680.454,1359.53 680.329,1359.58 680.221,1359.53C672,1356.04 663.271,1354.27 654.271,1354.27C617.625,1354.27 587.812,1384.08 587.812,1420.73C587.812,1457.38 617.625,1487.19 654.271,1487.19C690.917,1487.19 720.729,1457.38 720.729,1420.73C720.729,1411.73 718.958,1403 715.467,1394.78C715.425,1394.67 715.471,1394.55 715.579,1394.51C715.687,1394.45 715.804,1394.51 715.85,1394.62C719.363,1402.89 721.146,1411.68 721.146,1420.73C721.146,1457.6 691.146,1487.6 654.271,1487.6ZM654.271,1520.94C599.017,1520.94 554.063,1475.98 554.063,1420.73C554.063,1365.48 599.017,1320.53 654.271,1320.53C672.183,1320.53 689.779,1325.33 705.158,1334.41C705.258,1334.47 705.292,1334.6 705.233,1334.7C705.179,1334.8 705.042,1334.83 704.95,1334.77C689.633,1325.72 672.108,1320.94 654.271,1320.94C599.246,1320.94 554.479,1365.71 554.479,1420.73C554.479,1475.76 599.246,1520.53 654.271,1520.53C709.296,1520.53 754.063,1475.76 754.063,1420.73C754.063,1402.89 749.279,1385.37 740.229,1370.05C740.171,1369.95 740.204,1369.83 740.304,1369.77C740.392,1369.71 740.529,1369.74 740.587,1369.84C749.675,1385.22 754.479,1402.82 754.479,1420.73C754.479,1475.98 709.525,1520.94 654.271,1520.94ZM654.271,1454.27C635.775,1454.27 620.729,1439.23 620.729,1420.73C620.729,1403.1 634.521,1388.41 652.129,1387.3C652.225,1387.28 652.342,1387.38 652.346,1387.49C652.354,1387.6 652.267,1387.7 652.154,1387.71C634.767,1388.81 621.146,1403.32 621.146,1420.73C621.146,1439 636.004,1453.86 654.271,1453.86C671.683,1453.86 686.187,1440.23 687.288,1422.85C687.292,1422.73 687.371,1422.65 687.508,1422.65C687.625,1422.66 687.712,1422.76 687.704,1422.87C686.588,1440.48 671.904,1454.27 654.271,1454.27ZM654.271,1420.94C654.217,1420.94 654.167,1420.92 654.125,1420.88C654.042,1420.79 654.042,1420.66 654.125,1420.58L705.975,1368.73C706.054,1368.65 706.183,1368.65 706.267,1368.73C706.346,1368.82 706.346,1368.95 706.267,1369.03L654.417,1420.88C654.375,1420.92 654.325,1420.94 654.271,1420.94ZM741.475,1333.53L735.583,1304.06L700.225,1339.42L706.121,1368.88L735.583,1374.77L770.937,1339.42L741.475,1333.53Z" style="fill:none;stroke:rgb(37,37,37);stroke-width:9.64px;"/>
                </g>
            </g>
        </g>
    </g>
</svg>
