<?xml version="1.0" encoding="UTF-8" standalone="no"?>
<!DOCTYPE svg PUBLIC "-//W3C//DTD SVG 1.1//EN" "http://www.w3.org/Graphics/SVG/1.1/DTD/svg11.dtd">
<svg width="100%" height="100%" viewBox="0 0 150 48" version="1.1" xmlns="http://www.w3.org/2000/svg" xmlns:xlink="http://www.w3.org/1999/xlink" xml:space="preserve" xmlns:serif="http://www.serif.com/" style="fill-rule:evenodd;clip-rule:evenodd;stroke-linejoin:round;stroke-miterlimit:2;">
    <g transform="matrix(1,0,0,1,-885,-30)">
        <g id="logo" transform="matrix(0.142522,0,0,0.142522,795.109,-63.2335)">
            <g transform="matrix(4.16667,0,0,4.16667,1568.47,932.678)">
                <path d="M0,-54.031C20.066,-49.155 28.17,-35.579 27.494,-27.155L27.494,-26.876C28.17,-18.453 20.066,-4.877 0,-0.002C-6.301,1.531 -16.59,4.546 -32.491,7.273C-48.407,10.003 -70.008,12.444 -98.797,12.811C-127.553,12.441 -149.131,10 -165.036,7.273C-180.939,4.546 -191.227,1.531 -197.527,-0.002C-217.594,-4.877 -225.699,-18.454 -225.021,-26.876L-225.021,-27.155C-225.698,-35.579 -217.594,-49.155 -197.527,-54.031C-191.227,-55.561 -180.939,-58.577 -165.036,-61.305C-149.12,-64.034 -127.519,-66.476 -98.731,-66.842C-69.974,-66.473 -48.396,-64.033 -32.491,-61.305C-16.59,-58.577 -6.301,-55.561 0,-54.031" style="fill:rgb(237,28,36);"/>
            </g>
            <g transform="matrix(4.16667,0,0,4.16667,1664.39,821.28)">
                <path d="M0,-0.56L0,0C0.503,6.252 -5.861,18.468 -24.211,22.926C-30.446,24.442 -40.627,27.432 -56.366,30.132C-72.093,32.829 -93.437,35.234 -121.881,35.596C-150.231,35.226 -171.511,32.823 -187.201,30.132C-202.94,27.432 -213.122,24.442 -219.358,22.926C-237.707,18.468 -244.07,6.252 -243.568,0L-243.568,-0.56C-244.07,-6.81 -237.707,-19.028 -219.358,-23.487C-213.122,-25.001 -202.94,-27.993 -187.201,-30.691C-171.476,-33.389 -150.131,-35.794 -121.687,-36.156C-93.336,-35.786 -72.06,-33.383 -56.366,-30.691C-40.627,-27.993 -30.446,-25.001 -24.211,-23.487C-5.861,-19.028 0.503,-6.81 0,-0.56M-3.13,0.097C-2.747,4.856 -7.926,16.103 -25.043,20.262C-31.234,21.766 -41.339,24.739 -56.965,27.419C-72.559,30.093 -93.722,32.474 -121.927,32.833C-149.991,32.462 -171.062,30.084 -186.603,27.419C-202.229,24.739 -212.334,21.766 -218.526,20.262C-235.642,16.103 -240.822,4.856 -240.439,0.097L-240.439,-0.657C-240.822,-5.415 -235.642,-16.663 -218.526,-20.822C-212.334,-22.326 -202.229,-25.299 -186.603,-27.979C-171.01,-30.653 -149.846,-33.034 -121.642,-33.393C-93.575,-33.022 -72.507,-30.645 -56.965,-27.979C-41.339,-25.299 -31.234,-22.326 -25.043,-20.822C-7.926,-16.663 -2.747,-5.415 -3.13,-0.657L-3.13,0.097Z" style="fill:white;"/>
            </g>
            <g transform="matrix(4.16667,0,0,4.16667,1176.12,733.727)">
                <path d="M0,43.794C0,43.794 10.355,23.837 11.054,16.227L0,16.227L0,12.214L52.624,12.214L52.624,16.227L37.984,16.227L37.984,35.768C38.182,38.036 39.764,37.863 39.764,37.863L55.987,37.863L53.02,43.446C53.02,43.446 40.556,43.62 35.609,43.446C28.667,43.201 26.114,39.084 26.114,34.023L26.114,16.227L21.743,16.227C15.49,36.291 9.497,43.794 9.497,43.794L0,43.794ZM0.89,0L50.844,0L50.844,4.013L0.89,4.013L0.89,0Z" style="fill:white;fill-rule:nonzero;"/>
            </g>
            <g transform="matrix(4.16667,0,0,4.16667,965.334,831.664)">
                <path d="M0,-3.389C-0.118,-3.115 -0.175,-2.841 -0.106,-2.611C0.096,-1.931 1.575,-1.826 1.872,0.094C2.08,1.436 1.427,3.714 -1.738,3.714C-4.903,3.714 -5.556,1.436 -5.349,0.094C-5.052,-1.826 -3.573,-1.931 -3.37,-2.611C-3.302,-2.841 -3.358,-3.115 -3.477,-3.389C-3.789,-3.493 -4.099,-3.544 -4.359,-3.483C-5.131,-3.304 -5.25,-2.001 -7.426,-1.737C-8.948,-1.556 -11.531,-2.131 -11.531,-4.923C-11.531,-7.715 -8.948,-8.289 -7.426,-8.106C-5.25,-7.845 -5.131,-6.541 -4.359,-6.361C-4.099,-6.301 -3.789,-6.351 -3.477,-6.456C-3.358,-6.731 -3.302,-7.005 -3.37,-7.234C-3.573,-7.914 -5.052,-8.02 -5.349,-9.938C-5.556,-11.281 -4.903,-13.559 -1.738,-13.559C1.427,-13.559 2.08,-11.281 1.872,-9.938C1.575,-8.02 0.096,-7.914 -0.106,-7.234C-0.175,-7.005 -0.118,-6.731 0,-6.456C0.312,-6.351 0.622,-6.301 0.883,-6.361C1.655,-6.541 1.773,-7.845 3.95,-8.106C5.472,-8.289 8.054,-7.715 8.054,-4.923C8.054,-2.131 5.472,-1.556 3.95,-1.737C1.773,-2.001 1.655,-3.304 0.883,-3.483C0.622,-3.544 0.312,-3.493 0,-3.389M18.639,-13.647L18.639,3.801L41.587,3.801L41.587,7.815L18.639,7.815L18.639,10.519L41.587,10.519L41.587,14.531L18.639,14.531L18.639,21.25L8.351,21.25L8.351,14.531L-14.597,14.531L-14.597,10.519L8.351,10.519L8.351,7.815L-14.597,7.815L-14.597,3.801L8.351,3.801L8.351,-13.647L-2.48,-13.647C-6.351,-13.647 -9.5,-16.348 -9.78,-18.794L-14.597,-18.794L-14.597,-22.807L-9.773,-22.807L-9.8,-24.639L-0.997,-24.639L-0.997,-22.807L27.986,-22.807L27.986,-24.639L36.79,-24.639L36.763,-22.807L41.587,-22.807L41.587,-18.794L36.77,-18.794C36.49,-16.348 33.34,-13.647 29.469,-13.647L18.639,-13.647ZM-0.997,-18.794L-0.997,-17.922C-0.997,-16.613 0.487,-16.7 0.487,-16.7L26.502,-16.7C26.502,-16.7 27.986,-16.613 27.986,-17.922L27.986,-18.794L-0.997,-18.794ZM30.466,-3.389C30.348,-3.115 30.291,-2.841 30.36,-2.611C30.562,-1.931 32.042,-1.826 32.338,0.094C32.546,1.436 31.893,3.714 28.728,3.714C25.563,3.714 24.91,1.436 25.118,0.094C25.415,-1.826 26.893,-1.931 27.096,-2.611C27.165,-2.841 27.108,-3.115 26.99,-3.389C26.678,-3.493 26.368,-3.544 26.107,-3.483C25.335,-3.304 25.217,-2.001 23.04,-1.737C21.518,-1.556 18.936,-2.131 18.936,-4.923C18.936,-7.715 21.518,-8.289 23.04,-8.106C25.217,-7.845 25.335,-6.541 26.107,-6.361C26.368,-6.301 26.678,-6.351 26.99,-6.456C27.108,-6.731 27.165,-7.005 27.096,-7.234C26.893,-7.914 25.415,-8.02 25.118,-9.938C24.91,-11.281 25.563,-13.559 28.728,-13.559C31.893,-13.559 32.546,-11.281 32.338,-9.938C32.042,-8.02 30.562,-7.914 30.36,-7.234C30.291,-7.005 30.348,-6.731 30.466,-6.456C30.778,-6.351 31.089,-6.301 31.349,-6.361C32.121,-6.541 32.239,-7.845 34.415,-8.106C35.938,-8.289 38.521,-7.715 38.521,-4.923C38.521,-2.131 35.938,-1.556 34.415,-1.737C32.239,-2.001 32.121,-3.304 31.349,-3.483C31.089,-3.544 30.778,-3.493 30.466,-3.389" style="fill:white;fill-rule:nonzero;"/>
            </g>
        </g>
    </g>
</svg>
